<?xml version="1.0" encoding="UTF-8"?>
<svg id="Layer_2" data-name="Layer 2" xmlns="http://www.w3.org/2000/svg" xmlns:xlink="http://www.w3.org/1999/xlink" viewBox="0 0 1382.37 1382.37">
  <defs>
    <style>
      .cls-1 {
        fill: url(#linear-gradient-15);
      }

      .cls-2 {
        fill: url(#linear-gradient-13);
      }

      .cls-3 {
        fill: url(#linear-gradient-2);
      }

      .cls-4 {
        fill: url(#linear-gradient-10);
      }

      .cls-5 {
        fill: url(#linear-gradient-12);
      }

      .cls-6 {
        fill: none;
      }

      .cls-7 {
        fill: url(#linear-gradient-4);
      }

      .cls-8 {
        fill: url(#linear-gradient-3);
      }

      .cls-9 {
        fill: url(#linear-gradient-5);
      }

      .cls-10 {
        fill: url(#linear-gradient-22);
      }

      .cls-11 {
        fill: url(#linear-gradient-8);
      }

      .cls-12 {
        fill: url(#linear-gradient-14);
      }

      .cls-13 {
        fill: url(#linear-gradient-20);
      }

      .cls-14 {
        fill: url(#linear-gradient-17);
      }

      .cls-15 {
        fill: url(#linear-gradient-7);
      }

      .cls-16 {
        fill: url(#linear-gradient-9);
      }

      .cls-17 {
        fill: url(#linear-gradient-11);
      }

      .cls-18 {
        fill: url(#linear-gradient-19);
      }

      .cls-19 {
        fill: url(#linear-gradient-6);
      }

      .cls-20 {
        fill: url(#linear-gradient-21);
      }

      .cls-21 {
        fill: url(#linear-gradient-16);
      }

      .cls-22 {
        fill: url(#linear-gradient);
      }

      .cls-23 {
        fill: url(#linear-gradient-23);
      }

      .cls-24 {
        fill: url(#linear-gradient-18);
      }
    </style>
    <linearGradient id="linear-gradient" x1="320.85" y1="545.64" x2="609.69" y2="545.64" gradientUnits="userSpaceOnUse">
      <stop offset="0" stop-color="#fdc168"/>
      <stop offset="1" stop-color="#f0669c"/>
    </linearGradient>
    <linearGradient id="linear-gradient-2" x1="747.8" y1="568.35" x2="1064.65" y2="568.35" xlink:href="#linear-gradient"/>
    <linearGradient id="linear-gradient-3" x1="624.51" y1="277.67" x2="771.73" y2="277.67" xlink:href="#linear-gradient"/>
    <linearGradient id="linear-gradient-4" x1="378.45" y1="340.59" x2="681.13" y2="340.59" xlink:href="#linear-gradient"/>
    <linearGradient id="linear-gradient-5" x1="489.17" y1="695.17" x2="662.33" y2="695.17" xlink:href="#linear-gradient"/>
    <linearGradient id="linear-gradient-6" x1="777.15" y1="380.22" x2="1010.61" y2="380.22" xlink:href="#linear-gradient"/>
    <linearGradient id="linear-gradient-7" x1="661.19" y1="722.63" x2="892.73" y2="722.63" xlink:href="#linear-gradient"/>
    <linearGradient id="linear-gradient-8" x1="320.85" y1="-301.14" x2="1064.65" y2="-301.14" gradientTransform="translate(0 789.32)" gradientUnits="userSpaceOnUse">
      <stop offset="0" stop-color="#fdc165"/>
      <stop offset="1" stop-color="#f0639b"/>
    </linearGradient>
    <linearGradient id="linear-gradient-9" x1="557.16" y1="1208.91" x2="470.58" y2="1208.91" gradientTransform="matrix(1,0,0,1,0,0)" xlink:href="#linear-gradient-8"/>
    <linearGradient id="linear-gradient-10" x1="773.85" y1="1209.31" x2="669.04" y2="1209.31" gradientTransform="matrix(1,0,0,1,0,0)" xlink:href="#linear-gradient-8"/>
    <linearGradient id="linear-gradient-11" x1="813.89" y1="1208.86" x2="783.37" y2="1208.86" gradientTransform="matrix(1,0,0,1,0,0)" xlink:href="#linear-gradient-8"/>
    <linearGradient id="linear-gradient-12" x1="664" y1="1208.86" x2="633.48" y2="1208.86" gradientTransform="matrix(1,0,0,1,0,0)" xlink:href="#linear-gradient-8"/>
    <linearGradient id="linear-gradient-13" x1="911.77" y1="1208.91" x2="825.18" y2="1208.91" gradientTransform="matrix(1,0,0,1,0,0)" xlink:href="#linear-gradient-8"/>
    <linearGradient id="linear-gradient-14" x1="627.21" y1="1208.87" x2="566.17" y2="1208.87" gradientTransform="matrix(1,0,0,1,0,0)" xlink:href="#linear-gradient-8"/>
    <linearGradient id="linear-gradient-15" x1="770.84" y1="502.95" x2="614.54" y2="502.95" gradientTransform="matrix(1,0,0,1,0,0)" xlink:href="#linear-gradient-8"/>
    <linearGradient id="linear-gradient-16" x1="951.34" y1="1008.79" x2="898.12" y2="1008.79" gradientTransform="matrix(1,0,0,1,0,0)" xlink:href="#linear-gradient-8"/>
    <linearGradient id="linear-gradient-17" x1="433.36" y1="1007.72" x2="278.95" y2="1007.72" gradientTransform="matrix(1,0,0,1,0,0)" xlink:href="#linear-gradient-8"/>
    <linearGradient id="linear-gradient-18" x1="585.93" y1="1008.67" x2="443.11" y2="1008.67" gradientTransform="matrix(1,0,0,1,0,0)" xlink:href="#linear-gradient-8"/>
    <linearGradient id="linear-gradient-19" x1="270.21" y1="1008.85" x2="121.49" y2="1008.85" gradientTransform="matrix(1,0,0,1,0,0)" xlink:href="#linear-gradient-8"/>
    <linearGradient id="linear-gradient-20" x1="887.48" y1="1008.74" x2="781.5" y2="1008.74" gradientTransform="matrix(1,0,0,1,0,0)" xlink:href="#linear-gradient-8"/>
    <linearGradient id="linear-gradient-21" x1="1260.88" y1="1008.72" x2="1155.76" y2="1008.72" gradientTransform="matrix(1,0,0,1,0,0)" xlink:href="#linear-gradient-8"/>
    <linearGradient id="linear-gradient-22" x1="1140.59" y1="1010.98" x2="960.18" y2="1010.98" gradientTransform="matrix(1,0,0,1,0,0)" xlink:href="#linear-gradient-8"/>
    <linearGradient id="linear-gradient-23" x1="761.7" y1="1008.73" x2="584.55" y2="1008.73" gradientTransform="matrix(1,0,0,1,0,0)" xlink:href="#linear-gradient-8"/>
  </defs>
  <g id="Layer_1-2" data-name="Layer 1">
    <rect class="cls-6" width="1382.37" height="1382.37"/>
    <g>
      <g>
        <g>
          <path class="cls-22" d="M606.28,484.73c2.14-9.78,9.11-33.84-6.44-34.35-12.48-.42-10.7,14.96-12.41,23.58-14.67,73.79-89.96,135.45-163.07,146.13-22.38,3.27-56.83,1.49-72.69-17.06-3.8-4.44-7.43-12.93-8.72-18.66-13.07-57.99,72.09-76.25,113.73-76.47,23.63-.13,48.96,4.41,71.79,11.22,4.56,1.36,11.84,5.24,15.78,5.79,11.84,1.66,17.73-13.52,5.48-19.87-18.24-9.46-56.25-15.93-76.9-16.89-44.13-2.04-104.9,6.68-135.5,41.76-22.49,25.79-21.73,62.32.87,87.48,19.4,21.6,42.53,24.42,70.01,23.34,85.4-3.35,179.31-70.07,198.07-156Z"/>
          <path class="cls-3" d="M1050.83,539.31c-19-25.11-42.29-33.91-71.8-41.29-30.34-7.58-59.08-9.59-90.65-5.38-48.84,6.51-116.45,37.48-138.95,84.08-6.4,13.24,7.59,21.63,16,13.3,4.91-4.86,10.55-16.11,16.12-22.46,21.33-24.3,55.81-42.95,87.09-50.69,29.45-7.28,68.15-7.79,97.83-1.79,23.1,4.66,55.59,17.73,70,36.8,7.23,9.56,8.59,28.01,5.64,39.29-8.3,31.79-44.75,37.77-72.95,34.3-23.16-2.84-56.09-15.15-76.29-26.92-5.12-2.99-12.33-8.26-17.33-11.84-16.16-11.55-29.42-25.21-43.18-39.39-11.33-4.17-19.5,6.74-12.18,16.67,13.85,18.8,40.18,37.87,60.13,49.81,23.6,14.14,47.1,24.7,74.49,29.62,38.04,6.85,85.95,3.53,103.63-36.83,10.34-23.59,7.8-46.94-7.6-67.28Z"/>
          <path class="cls-8" d="M664.9,358.91c12.96,19.71,24.34,33.03,43.08,47.57,10.71,8.3,21.6,15.66,34.14,21.06,3.7,1.6,12.33,5.45,15.91,5.66,8.92.51,14.67-11.37,7.87-17.77-3.2-3.01-19.13-8.22-24.73-11.18-5.81-3.06-14.54-8.25-19.73-12.13-15.4-11.52-31.96-31.26-42.18-47.57-12.25-19.55-22.4-43.97-27.82-66.42-5.04-20.87-7.65-44.01-6.29-65.52,1.9-29.76,15.62-68.54,50.68-70.03,7.96-.34,21.75,2.67,28.31,7.21,23.65,16.35,28.64,60.81,26.92,87.06l-.83,1.42c-2.98,38.72-14.93,70.58-34.7,103.51-1.89,3.16-5.17,6.52-6.68,9.47-6.33,12.46,8.04,22.48,17.82,10.64,27.87-33.71,45.8-97.96,45.04-141.2-.56-31.5-8.77-67.44-35.91-86.16-31.15-21.5-70.84-14.47-92.27,16.77-15.21,22.17-19.1,51.09-19.02,77.47.07,22.5,3.73,42.22,9.87,63.72,7.25,25.35,16.16,44.57,30.52,66.42Z"/>
          <path class="cls-7" d="M436.93,393.01c26.67,18.53,51.54,29.93,83.47,37.7,22.83,5.56,44.59,8.2,68.21,7.18,25.07-1.08,52.28-7.64,74.51-19.28,8.06-4.21,24.04-11.47,15.64-22.85-7.31-9.89-19.24,1.82-26.71,5.49-12.32,6.06-32.91,13.14-46.39,15.1-21.72,3.16-51.16.85-72.7-3.59-28.36-5.85-59.56-18.68-83.46-35-29.85-20.38-70.26-62.82-38.16-98.74,30.18-33.78,84.07-2.7,109.96,21.55,13.78,12.91,33.75,38.89,43.08,55.65,3.52,6.32,7.47,15.64,10.29,22.46,2.31,5.57,7.5,23.83,9.94,26.86,6.04,7.52,18.41,2.86,18.44-6.69.03-10.2-16.13-43.66-21.76-53.73-.75-1.34-2.38-2.06-2.55-2.37-13.88-23.89-24.54-37.78-44.88-56.54-36.82-33.96-98.93-67.2-139.57-18.86-39.72,47.23,3.12,98.21,42.64,125.66Z"/>
          <path class="cls-9" d="M620.49,553.66c-2.56-2.91-11.31-12.11-14.2-13.63-9.08-4.78-18.07,4.2-14.31,13.41.96,2.34,12.59,13.33,15.46,16.86,10.78,13.29,23.05,35.19,27.84,51.58,8.06,27.6,8.71,62.36,4.49,90.65-5.59,37.47-25.42,91.28-59.86,111.12-17.64,10.16-38.76,9.33-55.02-3.42-6.76-5.29-13.05-19.35-14.36-27.82-5.8-37.33,20.49-82.54,44-109.92,18.26-21.27,40.75-38.83,65.45-52.13,6.59-7.38,1.5-19.99-8.96-17.99-4.25.81-13.41,6.94-17.49,9.49-53.15,33.23-122.36,118.46-100.06,184.91,4.22,12.55,8.31,18.13,17.95,26.93,37.31,34.01,82.07,15.4,109.46-20.23,27.51-35.78,36.99-74.76,40.43-118.89,2.5-32.03.84-55.43-9.87-86.16-6.92-19.85-17.03-38.9-30.95-54.76Z"/>
          <path class="cls-19" d="M788.34,509.66c6.1,7.27,18.43,2.23,18.39-6.7-.02-3.77-4.77-15.87-5.86-21.08-4.61-21.91-4.02-42.78.45-64.63,10.3-50.29,48.78-105.55,92.52-132.31,20.37-12.46,48.61-23.76,71.73-12.19,27.62,13.81,29.44,45.53,14.73,69.93-25.89,42.95-89.43,70.18-137.37,77.13-7.75,1.13-26.57-.42-29.24,7.55-5.43,16.15,10.97,14.9,21.28,14.11,52.02-3.96,119.8-33.06,153.01-74.06,30.19-37.28,33.28-82.3-9.84-109.92-.09-.05.2-1.34-.62-1.81-32.88-18.88-74.53-2.59-102.88,17.23-50.86,35.57-91,99.99-96.65,162.29-1.66,18.29-.96,34.21,2.97,52.22,1.11,5.08,4.39,18.66,7.38,22.24Z"/>
          <path class="cls-15" d="M826.45,651.5c-23.24-22.46-43.45-36-73.59-47.57-25.26-9.69-51.83-15.71-79.32-11.56-7.87,1.19-14.99,5.73-11.39,14.77,3.85,9.69,14.78,5.06,22.01,4.83,19.03-.6,37.24,2.13,55.23,8.12,28.82,9.58,49.24,26.72,72.7,43.98.1.07.17,1.55.87,2.23,19.03,18.5,36.85,42.54,47.6,66.88,12.5,28.28,21.48,73.63-9.95,92.82-23.05,14.06-47.34,5.54-64.54-12.95-17.63-18.93-32.15-52.96-37.7-78.08-4.5-20.35-6.53-45.17-5.42-66,.4-7.64,4.03-21.87,2.54-28.5-2.07-9.16-17.11-9.5-20.06,2-7.67,29.99-2.23,77.05,5.89,106.86,8.34,30.64,18.7,53.44,40.39,76.29,25.98,27.38,57.17,39.59,92.19,16.36,42.72-28.34,30.19-83.51,11.92-122.27-13-27.57-27.39-46.97-49.37-68.21Z"/>
        </g>
        <g>
          <path class="cls-11" d="M606.28,484.73c2.14-9.78,9.11-33.84-6.44-34.35-12.48-.42-10.7,14.96-12.41,23.58-14.67,73.79-89.96,135.45-163.07,146.13-22.38,3.27-56.83,1.49-72.69-17.06-3.8-4.44-7.43-12.93-8.72-18.66-13.07-57.99,72.09-76.25,113.73-76.47,23.63-.13,48.96,4.41,71.79,11.22,4.56,1.36,11.84,5.24,15.78,5.79,11.84,1.66,17.73-13.52,5.48-19.87-18.24-9.46-56.25-15.93-76.9-16.89-44.13-2.04-104.9,6.68-135.5,41.76-22.49,25.79-21.73,62.32.87,87.48,19.4,21.6,42.53,24.42,70.01,23.34,85.4-3.35,179.31-70.07,198.07-156Z"/>
          <path class="cls-11" d="M1050.83,539.31c-19-25.11-42.29-33.91-71.8-41.29-30.34-7.58-59.08-9.59-90.65-5.38-48.84,6.51-116.45,37.48-138.95,84.08-6.4,13.24,7.59,21.63,16,13.3,4.91-4.86,10.55-16.11,16.12-22.46,21.33-24.3,55.81-42.95,87.09-50.69,29.45-7.28,68.15-7.79,97.83-1.79,23.1,4.66,55.59,17.73,70,36.8,7.23,9.56,8.59,28.01,5.64,39.29-8.3,31.79-44.75,37.77-72.95,34.3-23.16-2.84-56.09-15.15-76.29-26.92-5.12-2.99-12.33-8.26-17.33-11.84-16.16-11.55-29.42-25.21-43.18-39.39-11.33-4.17-19.5,6.74-12.18,16.67,13.85,18.8,40.18,37.87,60.13,49.81,23.6,14.14,47.1,24.7,74.49,29.62,38.04,6.85,85.95,3.53,103.63-36.83,10.34-23.59,7.8-46.94-7.6-67.28Z"/>
          <path class="cls-11" d="M664.9,358.91c12.96,19.71,24.34,33.03,43.08,47.57,10.71,8.3,21.6,15.66,34.14,21.06,3.7,1.6,12.33,5.45,15.91,5.66,8.92.51,14.67-11.37,7.87-17.77-3.2-3.01-19.13-8.22-24.73-11.18-5.81-3.06-14.54-8.25-19.73-12.13-15.4-11.52-31.96-31.26-42.18-47.57-12.25-19.55-22.4-43.97-27.82-66.42-5.04-20.87-7.65-44.01-6.29-65.52,1.9-29.76,15.62-68.54,50.68-70.03,7.96-.34,21.75,2.67,28.31,7.21,23.65,16.35,28.64,60.81,26.92,87.06l-.83,1.42c-2.98,38.72-14.93,70.58-34.7,103.51-1.89,3.16-5.17,6.52-6.68,9.47-6.33,12.46,8.04,22.48,17.82,10.64,27.87-33.71,45.8-97.96,45.04-141.2-.56-31.5-8.77-67.44-35.91-86.16-31.15-21.5-70.84-14.47-92.27,16.77-15.21,22.17-19.1,51.09-19.02,77.47.07,22.5,3.73,42.22,9.87,63.72,7.25,25.35,16.16,44.57,30.52,66.42Z"/>
          <path class="cls-11" d="M436.93,393.01c26.67,18.53,51.54,29.93,83.47,37.7,22.83,5.56,44.59,8.2,68.21,7.18,25.07-1.08,52.28-7.64,74.51-19.28,8.06-4.21,24.04-11.47,15.64-22.85-7.31-9.89-19.24,1.82-26.71,5.49-12.32,6.06-32.91,13.14-46.39,15.1-21.72,3.16-51.16.85-72.7-3.59-28.36-5.85-59.56-18.68-83.46-35-29.85-20.38-70.26-62.82-38.16-98.74,30.18-33.78,84.07-2.7,109.96,21.55,13.78,12.91,33.75,38.89,43.08,55.65,3.52,6.32,7.47,15.64,10.29,22.46,2.31,5.57,7.5,23.83,9.94,26.86,6.04,7.52,18.41,2.86,18.44-6.69.03-10.2-16.13-43.66-21.76-53.73-.75-1.34-2.38-2.06-2.55-2.37-13.88-23.89-24.54-37.78-44.88-56.54-36.82-33.96-98.93-67.2-139.57-18.86-39.72,47.23,3.12,98.21,42.64,125.66Z"/>
          <path class="cls-11" d="M620.49,553.66c-2.56-2.91-11.31-12.11-14.2-13.63-9.08-4.78-18.07,4.2-14.31,13.41.96,2.34,12.59,13.33,15.46,16.86,10.78,13.29,23.05,35.19,27.84,51.58,8.06,27.6,8.71,62.36,4.49,90.65-5.59,37.47-25.42,91.28-59.86,111.12-17.64,10.16-38.76,9.33-55.02-3.42-6.76-5.29-13.05-19.35-14.36-27.82-5.8-37.33,20.49-82.54,44-109.92,18.26-21.27,40.75-38.83,65.45-52.13,6.59-7.38,1.5-19.99-8.96-17.99-4.25.81-13.41,6.94-17.49,9.49-53.15,33.23-122.36,118.46-100.06,184.91,4.22,12.55,8.31,18.13,17.95,26.93,37.31,34.01,82.07,15.4,109.46-20.23,27.51-35.78,36.99-74.76,40.43-118.89,2.5-32.03.84-55.43-9.87-86.16-6.92-19.85-17.03-38.9-30.95-54.76Z"/>
          <path class="cls-11" d="M788.34,509.66c6.1,7.27,18.43,2.23,18.39-6.7-.02-3.77-4.77-15.87-5.86-21.08-4.61-21.91-4.02-42.78.45-64.63,10.3-50.29,48.78-105.55,92.52-132.31,20.37-12.46,48.61-23.76,71.73-12.19,27.62,13.81,29.44,45.53,14.73,69.93-25.89,42.95-89.43,70.18-137.37,77.13-7.75,1.13-26.57-.42-29.24,7.55-5.43,16.15,10.97,14.9,21.28,14.11,52.02-3.96,119.8-33.06,153.01-74.06,30.19-37.28,33.28-82.3-9.84-109.92-.09-.05.2-1.34-.62-1.81-32.88-18.88-74.53-2.59-102.88,17.23-50.86,35.57-91,99.99-96.65,162.29-1.66,18.29-.96,34.21,2.97,52.22,1.11,5.08,4.39,18.66,7.38,22.24Z"/>
          <path class="cls-11" d="M826.45,651.5c-23.24-22.46-43.45-36-73.59-47.57-25.26-9.69-51.83-15.71-79.32-11.56-7.87,1.19-14.99,5.73-11.39,14.77,3.85,9.69,14.78,5.06,22.01,4.83,19.03-.6,37.24,2.13,55.23,8.12,28.82,9.58,49.24,26.72,72.7,43.98.1.07.17,1.55.87,2.23,19.03,18.5,36.85,42.54,47.6,66.88,12.5,28.28,21.48,73.63-9.95,92.82-23.05,14.06-47.34,5.54-64.54-12.95-17.63-18.93-32.15-52.96-37.7-78.08-4.5-20.35-6.53-45.17-5.42-66,.4-7.64,4.03-21.87,2.54-28.5-2.07-9.16-17.11-9.5-20.06,2-7.67,29.99-2.23,77.05,5.89,106.86,8.34,30.64,18.7,53.44,40.39,76.29,25.98,27.38,57.17,39.59,92.19,16.36,42.72-28.34,30.19-83.51,11.92-122.27-13-27.57-27.39-46.97-49.37-68.21Z"/>
        </g>
      </g>
      <g>
        <path class="cls-16" d="M556.48,1170.4c.15-3.77,1-7.8.54-11.73-2.38.66-1.27,3.13-4.47,3.62-2.17.34-8.21-.97-10.68-1.54-8.31-1.9-11.51-3.43-20.9-3.13-9.32.3-13.43,1.58-21.42,5.75-7.07,3.69-9.76,5.46-15.15,11.5-18.93,21.16-18.58,51.96,2.09,71.58,6.59,6.26,8.44,7.37,17.24,10.45,8.23,2.88,13.9,3.8,22.99,3.13,5.03-.37,10.45-1.92,14.99-4.09,2.02-.97,12.86-7.6,13.49-8.98.24-.53.88-4.24-.51-3.65-7.01,6.95-18.11,11.76-27.96,12.54-6.98.55-16.24-.84-22.47-4.18-5.52-2.97-13.51-12.09-16.2-17.77-6.12-12.94-6.57-33.15-1.57-46.5,2.21-5.91,9.05-16.11,14.11-19.86,4.81-3.56,14.4-6.6,20.38-6.79,6.45-.21,15.2,1.58,20.9,4.7,2.64,1.45,7.62,5.69,9.4,8.1,1.27,1.72,3.47,8.51,3.93,8.62.79.18,1.17-.62,1.3-1.31.5-2.79-.14-7.37-.02-10.47Z"/>
        <path class="cls-4" d="M749.32,1244.23c4.32,4.36,8.01,9.43,12.27,13.83.55.56.91,1.21,1.83,1.03v-88.38c0-.36.8-3.62,1.01-4.21,1.39-3.98,5.47-5.44,9.42-5.44v-1.56h-24.51v1.56c4.83-.27,8.66,1.52,10.08,6.35.18.63.88,3.95.88,4.34v69.09c-3.2-2.59-5.71-5.96-8.44-9.03l-20.76-22.78c-5.3-5.96-11.01-11.96-16.16-17.73-5.4-6.04-10.41-13.1-16.17-19.03l-11.73-12.77h-17.99v1.56c4.12.38,7.48,2.18,10.44,4.95.62.58,5.01,5.34,5.23,5.72.29.51.59.94.52,1.57-1.29,22.43,1.64,46.63-.03,68.85-.19,2.54-1,7.54-2.37,9.63-2.1,3.22-4.68,2.4-7.41,3.54-.75.32-.78.12-.65,1.17h24.51c.24-1.75-2.94-1.36-4.17-1.83-4.09-1.56-5.54-4.14-6.13-8.47-.33-2.44-.56-6.18-.68-8.71-.91-20,.72-40.7.03-60.77,2.72,2.42,5.37,5.14,7.82,7.82,5.41,5.93,10.63,11.93,16.16,17.73l18.76,21.63,18.25,20.34Z"/>
        <path class="cls-17" d="M813.89,1160.39l-8.01,4.11-1.81,3.58c1.66,25.39-2.4,53.96-.1,78.97.25,2.69.36,3.75,2.25,5.83l7.67,4.45h-30.52l7.58-4.54c1.61-2.1,2.09-4.06,2.34-6.63,2.31-24.02-1.75-51.83-.13-76.25-.32-2.11-.98-4-2.56-5.52-2.48-2.39-5.54-1.39-7.23-3.98h30.52Z"/>
        <path class="cls-5" d="M664,1160.39c-1.66,2.37-5.26,1.41-7.66,3.56-1.8,1.61-2.49,4.57-3.03,6.84,1.16,23.67-1.81,49.21-.12,72.66.33,4.55.74,8.62,5.09,11.06,1.94,1.09,4.81.56,5.72,2.81h-30.52l7.6-4.52c1.81-2.63,2.09-5.39,2.31-8.46,1.77-23.99-1.33-50.22-.12-74.45-.32-2.11-.98-4-2.56-5.52-2.48-2.39-5.54-1.39-7.23-3.98h30.52Z"/>
        <path class="cls-2" d="M911.09,1170.4c.15-3.77,1-7.8.54-11.73-2.38.66-1.27,3.13-4.47,3.62-2.17.34-8.21-.97-10.68-1.54-8.31-1.9-11.51-3.43-20.9-3.13-9.32.3-13.43,1.58-21.42,5.75-7.07,3.69-9.76,5.46-15.15,11.5-18.93,21.16-18.58,51.96,2.09,71.58,6.59,6.26,8.44,7.37,17.24,10.45,8.23,2.88,13.9,3.8,22.99,3.13,5.03-.37,10.45-1.92,14.99-4.09,2.02-.97,12.86-7.6,13.49-8.98.24-.53.88-4.24-.51-3.65-7.01,6.95-18.11,11.76-27.96,12.54-6.98.55-16.24-.84-22.47-4.18-5.52-2.97-13.51-12.09-16.2-17.77-6.12-12.94-6.57-33.15-1.57-46.5,2.21-5.91,9.05-16.11,14.11-19.86,4.81-3.56,14.4-6.6,20.38-6.79,6.45-.21,15.2,1.58,20.9,4.7,2.64,1.45,7.62,5.69,9.4,8.1,1.27,1.72,3.47,8.51,3.93,8.62.79.18,1.17-.62,1.3-1.31.5-2.79-.14-7.37-.02-10.47Z"/>
        <path class="cls-12" d="M624.72,1242.73c-2.42,4.19-2.68,7.75-8.12,9.83-4.33,1.66-15.98,1.7-20.82,1.17-4.03-.44-8.23-2.35-8.92-6.78,1.61-24.53-2.32-52.12-.1-76.28.24-2.64.36-3.8,2.25-5.83l7.67-4.45h-30.52c1.93,2.82,5.21,1.36,7.61,4.51,1.8,2.36,2.09,5.62,2.3,8.47,1.76,23.69-1.33,49.62-.12,73.56l-2.22,5.86-7.57,4.54c9.86-.02,19.76.04,29.61,0,9.22-.03,18.49.13,27.7-.12l3.72-15.58c-1.04-1.51-1.95.16-2.49,1.1Z"/>
      </g>
      <path class="cls-1" d="M765.57,482.16c-1.44-2.54-4.44-5.3-5.3-7.27-1.62-3.72-1.7-9.44-3.66-14.29-3.19-7.87-6.83-11.67-13.63-16.44-9.71-6.82-13.87-4.82-22.37-8.59-1.67-.74-4.88-3.56-7.24-4.87-12.46-6.89-21.61-8.19-35-2.69-3.8,1.56-3.61,2.2-4.49,2.69-9.35,5.18-17.79,4.52-25.82,8.7-1.58.82-1.01,2.01-1.11,2.07-11.05,6.64-15,10.45-19.11,23.52-2.61,8.3-1.21,6.34-5.86,13.88-8.59,13.94-10.45,29.09-1.77,43.65,1.25,2.09,5.66,6.61,5.92,7.54.61,2.12,0,4.91.58,7.5,3.09,13.89,8.45,20.35,20.24,26.88,9.64,5.34,9.33,3.08,18.21,5.57,1.84.52,8.89,5.96,14.1,7.89,16.25,6.01,23.83,3.93,37.7-5.39,7.65-5.14,16.04-3.72,24.52-8.95.84-.52.53-1.77.61-1.82,10.91-7.56,14.67-12.25,17.72-25.81.51-2.24-.17-4.69.41-6.77.49-1.75,5.75-7.61,7.17-10.78,5.21-11.68,4.46-25.12-1.82-36.22ZM692.72,553.67c-5.23-7.36-8.17-14.63-8.94-23.75,2.54-4.78,5.11-8.2,7.4-13.29.6-1.34.13-2.94,2.44-2.45.69,6.71,6.24,10.92,8.96,16.64-.91,7.97-2.76,15.91-8.06,22.2-.68.8-1.7.56-1.79.65ZM643.78,503.43l-.42-1.36c1.29-.57,2.77-2.63,3.59-3.15,2.16-1.36,10.39-4.22,13-4.49,5.4-.56,6.86.22,11.23,2.69.31.18.89,1.36,2.03,1.97,2.75,1.47,5.65,2.81,8.74,3.43l-6.95,3.39c-.97.15-1.66,1.79-2.02,1.98-2.63,1.42-5.74,3.58-8.51,3.68-3.69.14-11.46-2.01-14.83-3.68-.45-.22-2.16-1.4-2.69-1.8-1.09-.81-2.09-1.82-3.17-2.66ZM696.67,455.02c2.63,4.24,6.31,12.47,6.01,17.43-.17,2.75-7.57,11.07-9.06,17.48l-9.39-14.4c-1.3-3.52,1.13-10.76,2.67-14.31,1.61-3.71,4.67-6.45,5.82-9.89,1.79-.32,3.18,2.44,3.95,3.67ZM741.19,506.1c-4.42,3.03-15.74,7.57-20.91,6.09-1.05-.3-2.17-1.81-3.32-2.5-4.06-2.42-7.56-5.64-12.56-6.29l9.3-4.62c1.2-.23,1.9-2.24,2.36-2.54,3.98-2.59,6.26-3.24,11.15-2.61,2.22.29,12.25,4.1,13.98,5.3.9.63,2.97,3.58,2.76,4.86-1.1.46-2,1.8-2.76,2.32ZM720.14,489.11c-1.68,1.28-2.81.52-4.09.83-1.41.35-14.37,3.98-14.37,3.13,3.63-4.35,2.77-14.89,5-18.33.62-.96,8.03-5.78,9.37-6.34,1.4-.59,13.31-3.86,13.47-2.23-.52,6.29-4.31,19.08-9.38,22.94ZM693.62,511.48c-11.51.95-12.07-17.06-.9-17.05,10.51,0,10.7,16.25.9,17.05ZM684.62,494.89c-3.85-2.18-8.67-2.07-12.55-3.15-10.48-2.93-14.6-16.05-15.26-26.03,1.05-1.05,12.41,2.58,14.36,3.59.89.46,8.22,5.86,8.49,6.32,2.01,3.36,1.77,15.02,4.95,19.27ZM668.24,515.28c2.2-1.07,3.98-.62,5.63-1.1,3.36-.98,6.55-2.09,9.88-3.15,1.12-.36,1.19-.99.9.9-.22,1.46-3.68,14.99-4.04,15.72-.22.44-7.01,5.92-7.63,6.28-1.41.81-16.06,6.36-16.17,4.03.61-6.29,5.58-19.81,11.44-22.67ZM700.82,511.92c3.64.45,6.99,1.99,10.55,2.92,1.91.5,4.09-.1,5.59.23,6.52,1.46,11.96,17.16,12.56,23.33-1.29,1.12-12.28-2.61-14.36-3.58-1.6-.75-8.85-5.29-9.41-6.29-1.74-3.11-1.24-13.04-4.93-16.6ZM724.15,516.41c4.49-2.2,9.4-2.45,14.04-4.78,2.13-1.07,3.53-3,4.79-3.74,1.03-.61,2.89-1.13,4.06-1.81,4.16-.1,11.79,18.89,8.49,22.88-.45.54-3.75,2.72-4.71,3.36-1.85,1.22-7.89,4.72-9.63,5.18-1.29.35-7.97.98-8.56.04-.68-7.76-4.09-14.85-8.47-21.14ZM747.03,499.66c-1.68-1.84-3.92-2.38-5.84-3.44-1.52-.84-2.41-2.25-5.16-3.37-3.65-1.5-7.94-2.64-11.9-2.92,2.99-5.31,6.55-10.74,7.87-16.81.56-2.58-.91-7.24,2.44-7.45.43-.03,6.15.77,6.74.92,2.38.64,12.82,6.72,14.34,8.54,2.09,2.49-.74,11.83-1.99,15.03-1.38,3.5-3.59,7.12-6.51,9.49ZM741.19,445.96c5.3,3.98,14.02,16.1,14.38,22.88.06,1.12-.02,1.87-1.35,1.34-1.92-.76-5.19-3.6-7.92-4.68-1.71-.68-3.24-.37-4.21-.7-.31-.1-1.01-1.2-2.41-1.59-2.18-.6-5.09-.35-7.37-1.19.17-7.61-3.15-14.78-7.27-21.01,4.18-.97,12.84,2.46,16.15,4.94ZM729.54,461.63c-4.77,1.05-8.98,2.3-13.48,4.08l-10.77,5.38c.29-8.18-4.39-15.45-8.76-22,.28-3.61,15.26-9.07,18.63-9.41,9.17-.94,12.81,14.93,14.38,21.95ZM671.6,435.22c.43-.67,1.92-1.15,2.27-1.82,2.23.21,4.09-2.19,5.39-2.69,9.93-3.87,24.08-2.87,33.21,2.69.19.12,3.07,2.55,3.2,2.72.46.6-.51.82-.51.87-4.15.92-8.37,1.67-12.29,3.42-1.17.52-8.93,5.12-9.25,5.56-6.36-4.65-13.38-9.3-21.54-9.87,0-.06-.89-.23-.48-.87ZM672.08,438.78c6.28.97,13.8,5.72,18.88,9.45-4.44,7-9.89,14.18-9.9,22.87-.53.55-6.7-2.92-8.07-3.59-5.75-2.82-9.8-4.46-16.21-5.94.92-7.14,6.25-24.18,15.32-22.78ZM646.95,444.17c1.23-.76,14.36-6.65,14.37-4.03-3.77,6.71-7.16,13.19-7.6,21.12-.27.41-5.7,2.37-6.76,2.66-1.85.5-3.88.16-6.53,1.1-3.06,1.08-6.68,3.06-9.18,5.18-.84-9.35,7.91-21.2,15.71-26.02ZM646.95,466.61c2.04-.42,4.05-1.32,6.22-.83,1.03,9.19,3.9,17.93,9.94,25.05-4.12.09-9.02,1.27-12.82,2.9-2.05.88-2.71,2.16-3.33,2.49-1.71.9-6.8,4.14-7.96,3.47-4.41-6.32-9.19-14.83-9.15-22.82.03-4.82,12.8-9.39,17.1-10.27ZM621.38,516.85c-5.27-12.18-4.42-28.5,5.81-37.68.08,8.76,4.61,16.39,9.73,23.05-4.14,6.78-9.28,13.47-9.73,21.82-1.52,1.63-5.39-6.21-5.82-7.19ZM640.21,505.35c1.19,1.78,3.83,1.86,4.94,2.54,1.54.95,1.14,1.12,4.49,2.69,4.72,2.22,8.18,3.67,13.46,4.93-5.46,6.26-8.7,13.73-9.36,22.05-.79,1.14-4.59,1.09-5.89.84-1.58-.29-8.64-3.38-10.48-4.33-2.59-1.34-4.64-3.56-7.27-4.83l-.3-1.16c.68-8.41,3.81-17.21,10.41-22.74ZM648.74,562.64c-7.1-3.68-14.04-12.02-16.85-19.5-.34-.9-3.69-10.41-.67-9.21,2.17.86,5.5,3.74,8.55,4.92,2.62,1.01,5.35,1.61,8.07,2.25,1.52.36,3.7-.21,5.17,1.12,1.62,8.51,3,16.95,9.18,23.57-3.58.87-10.19-1.45-13.46-3.15ZM656.74,543.34l.6-1.44c6.25-.69,10.29-2.62,15.64-5.28,2.84-1.41,5.47-2.61,8.07-4.49.07,6.69,2.57,13.1,5.92,18.76.96,1.62,3.28,3.46,3.96,4.57.18.29-.12,1.27,0,1.79-1.74.43-6.06,4.39-8.37,5.54-1.55.77-7.34,3.22-8.68,3.43-12.39,2-15.53-13.39-17.13-22.9ZM680.15,576.1l-8.97-5.84c-.16-.33,2.12-1.16,2.69-1.34,7.29-2.34,14.21-4.07,19.75-9.87,6.33,5.34,14.27,8.62,22.44,9.87.03.3-.05.61,0,.9-11.07,7.81-22.75,9.61-35.9,6.28ZM716.06,565.33c-7.38-.06-14.1-4.34-19.77-8.55,4.63-7.34,9.1-14.69,9.01-23.76,3.1,1.41,5.84,3.04,8.97,4.48,5.48,2.53,9.34,3.76,15.32,5.01-.81,6.31-2.2,12.28-5.62,17.7-2.7,4.27-2.45,5.16-7.9,5.11ZM741.19,559.95c-1.83,1.19-14.9,6.32-16.16,5.38,4.19-7.18,7.88-14.58,7.3-23.2,2.96-1.12,5.72-.98,8.85-1.92,3.81-1.14,7.03-2.33,10.5-4.31,1.34-.76,4.97-4.95,4.77-1.52-.46,7.99-8.65,21.29-15.27,25.58ZM760.91,523.14c-2.35.28-1.41-.04-1.8-1.31-2.16-7.21-4.02-12.93-8.77-19.02,3.85-7.19,9.02-14.06,8.8-22.75,11.11,11.6,9.82,29.89,1.77,43.07Z"/>
      <g>
        <path class="cls-21" d="M951.21,1090.84c-.24-.63-6.76-1.75-8.34-2.44-6.84-2.95-9.13-8.42-9.65-15.48-3.13-42.21,2.34-88.35.14-130.98,1.15-9.55,8.38-14.79,17.86-14.01v-2.69c-8.66-.02-17.37.02-26.03,0-8.96-.02-17.97.01-26.93,0v2.69c7.76-.81,15.88,4.11,16.98,12.2-2.3,43.81,3.33,91.2.12,134.59-.8,10.87-7.14,14.35-17.1,16.13-.77,2.01,2.06,1.28,3.14,1.34,7.71.39,16.02.02,23.79,0,7.5-.02,15.46.38,22.9,0,1.08-.06,3.9.68,3.14-1.34Z"/>
        <path class="cls-14" d="M378.04,1025l17.37,51.7c1.83,13.8-5.1,12.16-15.47,13.7-1.57.23-1.5-.48-1.35,1.77h54.75c.41-2.97-5.08-2.39-7.17-3.15-5.68-2.06-9.03-7.52-11.55-12.69-14.95-30.64-22.55-70.43-35.98-102.27l-2.25-5.76c-5.15-14.64-10.22-29.31-15.29-43.98-1.13-1.36-8.17-1.11-10.33-.88-1.42.15-2.79-.3-3.45,1.49-9.15,29.22-18.79,58.29-28.46,87.35l-18.34,56.13c-3.71,9.44-6.18,16.41-16.17,20.63-1.87.79-5.67-.27-5.39,3.14h39.49c.43-2.63-.62-1.46-2.09-1.91-5.63-1.71-9.47-.78-10.97-7.91-3.08-14.63,11.01-41.76,14.86-57.49,13.32-.33,26.72.42,40.05.07l17.74.07ZM375,1018.58c-3.88.04-7.79-.04-11.67,0-13.45.15-26.94-.1-40.39,0l24.45-77.41,1.56-1.56c-.2.82.72,1.29.91,1.79,7.94,20.88,18.21,49.64,24.23,70.9.29,1.02,1.17,6,.9,6.28Z"/>
        <path class="cls-24" d="M578.74,1088.14c-14.86-7.63-29.8-40.89-39.48-55.7-.74-1.14-.92-2.36-2.71-2.19.11-5.84-15.86-17.66-20.64-21.1,4.06-1.01,8.23-2.33,12.01-4.14,1.85-.88,2.43-2.09,3.24-2.58,27.71-16.97,24.69-56.36-3.59-70.9-15.2-7.81-23.67-6.03-40.39-6.28-14.64-.22-29.34.16-43.98,0v2.69c11.68-.18,17.14,5.17,17.99,16.57,3.16,42.18-2.36,88.38-.14,130.98-1.41,11.58-6.84,11.8-15.9,14.66-1.53.48-2.35-.39-1.96,2.04h53.85c.41-2.58-.55-1.49-2.08-1.92-6.89-1.92-12.11-2.22-15.03-10.15-3.32-9.02-2.3-43.53-1.78-54.84.21-4.44,1.69-9.15.93-13.88,2.07.12,4.22-.17,6.29,0,9.22.77,19.73,6.89,26.03,13.46,7.29,7.61,15.56,22.95,21.54,32.31,7.46,11.68,13.19,24.76,22.89,35h30.07c.38-2.94-4.98-2.91-7.18-4.04ZM485.39,1006.91c-2.39.03-4.79-.02-7.18,0v-74.94c2.28-2.06,6-2.18,8.98-2.24,13.69-.29,30.16,4.83,37.7,17.05,6.01,9.76,7.07,27.92,3.59,38.59-2.47,7.56-9.68,15.12-17.05,17.95-6.47,2.48-18.94,3.5-26.03,3.59Z"/>
        <path class="cls-18" d="M269.05,942.7c.26-6.48,1.72-13.4.93-20.15-4.08,1.14-2.18,5.37-7.68,6.22-3.72.58-14.11-1.67-18.35-2.64-14.28-3.26-19.78-5.9-35.9-5.39-16,.51-23.08,2.72-36.8,9.87-12.15,6.34-16.76,9.39-26.03,19.75-32.52,36.34-31.91,89.25,3.59,122.96,11.32,10.75,14.5,12.65,29.62,17.95,14.13,4.95,23.87,6.53,39.49,5.39,8.65-.63,17.95-3.29,25.74-7.02,3.47-1.66,22.09-13.06,23.16-15.43.42-.91,1.51-7.28-.87-6.26-12.05,11.94-31.11,20.2-48.03,21.53-12,.94-27.9-1.44-38.59-7.18-9.49-5.09-23.21-20.76-27.82-30.52-10.52-22.22-11.29-56.94-2.69-79.88,3.8-10.16,15.54-27.67,24.23-34.11,8.26-6.12,24.73-11.34,35-11.67,11.07-.36,26.11,2.71,35.9,8.08,4.54,2.49,13.08,9.77,16.15,13.91,2.19,2.95,5.95,14.62,6.75,14.8,1.36.31,2.01-1.06,2.23-2.24.85-4.79-.25-12.65-.03-17.98Z"/>
        <path class="cls-13" d="M885.27,1065.29c-1.64,1.85-3.67,8.77-6.03,11.92-4.03,5.38-10.19,8.84-16.89,9.58-11.74,1.3-27.23.28-38.59-2.69-.68-2.93-8.13-10.49-6.32-16.57,2.47-39.28-3.19-82.36.05-121.19.97-11.6,5.4-18.41,17.94-18.42v-2.69h-53.86c-.06,3.44,4.68,2.69,7.43,3.79,7.96,3.17,9.96,6.94,10.56,15.47,3,42.65-2.26,88.87-.12,131.9-1.4,6.94-4.97,11.23-11.75,13.38-2.4.76-6.82-.4-6.11,2.4,14.05.03,28.13-.02,42.18,0,12.85.02,25.75.1,38.59,0,6.55-.05,13.15.08,19.7-.04l5.42-27.77c-1.25-.26-1.47.1-2.21.93Z"/>
        <path class="cls-20" d="M1200.72,1092.18c10.41-.38,20.99.05,31.41,0,7.73-.04,15.5.13,23.22-.12,1.06-.68,5.53-22.33,5.53-24.55,0-1.78-.09-1.44-1.81-1.35-4.45,13.92-12.45,19.78-26.94,20.64-6.02.36-27.67,1.11-32.31,0-.29-.07-.66-.19-1.08-.37-3.25-1.34-5.62-4.19-6.57-7.58-.61-2.16-1.16-4.55-1.35-6.83-1.67-19.18,1.35-40.68-.02-60.12.3-1.1,2-.25,2.74-.49.93,1.49,3.4.89,4.92.91,9.12.11,18.68-.92,27.39-.91,6.93,0,13.59,2.23,17.08,8.5,1.2,2.16,1.45,4.66,2.45,6.52.58,1.07-.02,1.49,2.01,1.14v-37.7c-2.5-.42-1.51.51-2.03,1.97-3.93,11.14-7,13.17-19.51,14.19-8.89.72-21.47.41-30.52,0-1.49-.07-3,.06-4.49,0v-74.88c.14-.98,4.16-.47,5.39-.52,9.67-.33,28.94-1.38,37.7,0,.59.09,6.48,2.35,7.51,2.81,9.58,4.29,9.56,7.5,12.11,16.65.43,1.53-.66,2.49,1.92,2.08v-26.93c-7.17-.02-14.37.03-21.54,0-12.55-.05-25.15-.03-37.7,0-13.45.03-26.94-.03-40.39,0v2.68c12.86-1.83,17.18,7.13,17.99,18.36,2.97,41.11-2.16,85.83-.18,127.36.03.62,0,1.24-.11,1.85-1.85,10.26-6.3,13.16-16.35,14.91-1.5.26-1.54-.55-1.35,1.76,9.57-.62,19.93.25,29.61,0h15.26Z"/>
        <path class="cls-10" d="M1098.37,1071.09c7.43,7.51,13.79,16.23,21.11,23.8.94.97,1.57,2.09,3.16,1.78v-152.13c0-.62,1.38-6.22,1.74-7.24,2.4-6.85,9.42-9.37,16.22-9.37v-2.69h-42.19v2.69c8.31-.46,14.91,2.61,17.34,10.93.32,1.08,1.51,6.8,1.51,7.47v118.92c-5.51-4.45-9.83-10.25-14.52-15.54l-35.74-39.21c-9.13-10.25-18.95-20.59-27.82-30.52-9.29-10.39-17.92-22.56-27.83-32.76l-20.19-21.99h-30.96v2.68c7.09.65,12.87,3.76,17.97,8.52,1.07,1,8.62,9.19,9,9.85.5.88,1.01,1.61.9,2.69-2.22,38.61,2.82,80.26-.06,118.51-.33,4.36-1.72,12.98-4.07,16.57-3.62,5.54-8.06,4.13-12.75,6.1-1.3.55-1.35.21-1.12,2.02h42.18c.41-3-5.07-2.34-7.17-3.15-7.03-2.69-9.54-7.13-10.54-14.58-.57-4.2-.97-10.63-1.17-14.99-1.57-34.42,1.25-70.06.05-104.6,4.68,4.16,9.24,8.85,13.45,13.46,9.31,10.2,18.3,20.53,27.82,30.52l32.28,37.24,31.41,35.01Z"/>
        <path class="cls-23" d="M734.01,944.99c-13.81-13.21-25.09-19.14-43.98-22.44-19.05-3.33-27.87-2.53-45.77,3.59-15.94,5.45-21.4,8.95-33.21,20.64-36.25,35.88-34.99,90.6,1.8,125.65,13.95,13.3,28.13,20.81,47.57,23.34,19.43,2.52,31.77.82,49.36-7.18,14.59-6.63,17.34-9.18,27.82-20.64,33.02-36.09,32.39-88.56-3.59-122.96ZM734.9,1050c-4.82,11.99-15.7,25.79-26.93,32.31-13.54,7.87-31.35,10.54-46.67,8.08-.57-.09-1.25.11-1.8,0-17.24-3.45-35.57-16.9-43.98-32.31-13.33-24.43-13.49-72.22-.9-96.93,5.24-10.29,20.73-26.15,31.41-30.52,11.6-4.73,31.93-5.76,43.98-2.69,10.9,2.77,22.37,8.82,30.08,17.04,4.13,4.41,6.85,10.18,11.21,14.37-.14,1,5.75,15.61,6.57,19.01,4.93,20.46,4.92,51.96-2.98,71.64Z"/>
      </g>
    </g>
  </g>
</svg>